PathFileType	4	(X/Y/Z)	/Users/niels/Desktop/University/Third Semester/Perception and Action/Exam/Gymnastics Motion Tracking/Code for Gym Tracking/Analyzed Data/Webcam_Backflip/id5_1_trajectory_Sports2D/id5_1_trajectory_Sports2D_px_person00.trc
DataRate	CameraRate	NumFrames	NumMarkers	Units	OrigDataRate	OrigDataStartFrame	OrigNumFrames
29.81132075471698	29.81132075471698	8	22	m	29.81132075471698	79	159
Frame#	Time	Hip			RHip			RKnee			RAnkle			RBigToe			RSmallToe			RHeel			LHip			LKnee			LAnkle			LBigToe			LSmallToe			LHeel			Neck			Head			Nose			RShoulder			RElbow			RWrist			LShoulder			LElbow			LWrist		
		X1	Y1	Z1	X2	Y2	Z2	X3	Y3	Z3	X4	Y4	Z4	X5	Y5	Z5	X6	Y6	Z6	X7	Y7	Z7	X8	Y8	Z8	X9	Y9	Z9	X10	Y10	Z10	X11	Y11	Z11	X12	Y12	Z12	X13	Y13	Z13	X14	Y14	Z14	X15	Y15	Z15	X16	Y16	Z16	X17	Y17	Z17	X18	Y18	Z18	X19	Y19	Z19	X20	Y20	Z20	X21	Y21	Z21	X22	Y22	Z22
79	2.65	0.8125277728910371	-0.47586543127425013	0.0	0.8114736222652822	-0.4727812612232272	0.0	0.8214428215629032	-0.5851131315412361	0.0	0.8097211474851699	-0.6951978709307141	0.0	0.8364048422627944	-0.7338928888891435	0.0	0.8254041084450069	-0.7326898157054886	0.0	0.7994789972076358	-0.7076062556323007	0.0	0.8139616280668026	-0.47078319746229974	0.0	0.8181779894943934	-0.5832290523796203	0.0	0.8087527035408798	-0.68841811828811	0.0	0.8344092077049641	-0.7193817572739514	0.0	0.8307328261378445	-0.7141571382371303	0.0	0.795554505467342	-0.6992850334583031	0.0	0.7919923896418848	-0.3393591852312612	0.0	0.8056671627451328	-0.2674768484817237	0.0	0.8178298872682613	-0.3045319338898238	0.0	0.7814128969376589	-0.34316660334056714	0.0	0.7483056238444777	-0.3266060953399898	0.0	0.7331637186776147	-0.29033451311854996	0.0	0.7992066843198348	-0.34701500944968283	0.0	0.816455778769308	-0.342951814323653	0.0	0.8392183486521035	-0.3151090285148633	0.0
80	2.6835443037974684	0.8121994070517193	-0.4883488356480918	0.0	0.8125326944488975	-0.485124835761632	0.0	0.8236797873897774	-0.5980195387653494	0.0	0.8089088966402277	-0.7084562386876836	0.0	0.8341511909669902	-0.7450875378219272	0.0	0.8236359202541395	-0.7439524124562193	0.0	0.7991077902733728	-0.7208391010057115	0.0	0.8122162654430805	-0.48304997654261017	0.0	0.8197924210600717	-0.5959718342689543	0.0	0.8081914486223152	-0.7012178681597129	0.0	0.8353431878217098	-0.7296981600006007	0.0	0.8306692042089979	-0.7240837798214134	0.0	0.7950923735898863	-0.7110555205216996	0.0	0.791042349327145	-0.35272737666870696	0.0	0.802213286440482	-0.28052014701438577	0.0	0.8142217365170265	-0.31689592419800056	0.0	0.7816330181605372	-0.35700987948838725	0.0	0.7495604599114489	-0.33065628748587556	0.0	0.7374410077096756	-0.2898781516040572	0.0	0.798057670043701	-0.3595127484285123	0.0	0.826318211496811	-0.3510739204972324	0.0	0.8527027030270782	-0.31856534754556864	0.0
81	2.7170886075949365	0.8117796372906912	-0.5041287721519109	0.0	0.8130177251286334	-0.5008418156656855	0.0	0.8260432292669038	-0.6140475980082137	0.0	0.8071051160598885	-0.724094788441233	0.0	0.8312146878785484	-0.7579366147881129	0.0	0.8212117934063237	-0.7571018564983663	0.0	0.7975015886471513	-0.73667543868295	0.0	0.8108498656734018	-0.49877599968543346	0.0	0.8213799696815923	-0.6119453929797928	0.0	0.8070615785424416	-0.7162920805051958	0.0	0.8360477416178463	-0.7419269026423522	0.0	0.8302631944835867	-0.736230747979182	0.0	0.7940766963885768	-0.7253974836689121	0.0	0.790353955716472	-0.3689934964468822	0.0	0.7999229551950353	-0.29664732872068716	0.0	0.8117060678546074	-0.33249858941097027	0.0	0.7818790315896699	-0.37365214332428776	0.0	0.7505912065620108	-0.339539938521284	0.0	0.7404846078978728	-0.2955736793066316	0.0	0.796635786436694	-0.3748320533723797	0.0	0.8337208807490697	-0.3613101680289469	0.0	0.8592713040266314	-0.32383005586287145	0.0
82	2.750632911392405	0.8111917216293857	-0.5226931930588622	0.0	0.8125502149275138	-0.5194431754539968	0.0	0.8282208454633297	-0.632545730490346	0.0	0.804319125207564	-0.741401914174901	0.0	0.8278586616506595	-0.7718351968638492	0.0	0.818258022814117	-0.7714558566064481	0.0	0.7946784380149858	-0.754291606922706	0.0	0.8103997507738954	-0.5174599473722035	0.0	0.8228373091803183	-0.6305080568976753	0.0	0.8053331366630031	-0.7330510062596681	0.0	0.8360772321911084	-0.755745505044513	0.0	0.8293834311242597	-0.750259897243249	0.0	0.7922628637863499	-0.7417995102888961	0.0	0.7900593471773855	-0.3875354162001313	0.0	0.7990408566128825	-0.31530972054676476	0.0	0.8106144685701439	-0.3508607092253225	0.0	0.7817163662617286	-0.39230617087482317	0.0	0.7508846560469218	-0.35397161255918663	0.0	0.7420415358404132	-0.3077251099564997	0.0	0.7958034023795816	-0.39251698629051507	0.0	0.8388214309880487	-0.3740412740089611	0.0	0.85897737096764	-0.33192796832845606	0.0
83	2.784177215189873	0.8102788980956103	-0.5430908921944031	0.0	0.8110379911540202	-0.5400396529194363	0.0	0.8298914719380901	-0.6525818058093901	0.0	0.800785985955367	-0.7595449015669473	0.0	0.8243166212138119	-0.7862304429510053	0.0	0.8149635987790229	-0.7863113377255049	0.0	0.791025023942864	-0.7726544232618655	0.0	0.8107547509315144	-0.5381810802390953	0.0	0.8239197214198898	-0.6506625671843186	0.0	0.8029885067787739	-0.7508317051157375	0.0	0.8351634671211411	-0.7707374349379239	0.0	0.8279759363626376	-0.7656607812174876	0.0	0.7896639263632039	-0.7595311489843354	0.0	0.7902478569955687	-0.4075465022434068	0.0	0.799557960302578	-0.3357672733173977	0.0	0.8110653238519326	-0.37121600160814827	0.0	0.7810343770522253	-0.4121519548984563	0.0	0.7501764434908669	-0.3742907989794959	0.0	0.742077494692169	-0.3266192310559289	0.0	0.7961363168036687	-0.4119088772921495	0.0	0.8422098081857555	-0.3897546014446834	0.0	0.8537178970586558	-0.3440517305812855	0.0
84	2.8177215189873417	0.8089039930285304	-0.5639768163626426	0.0	0.8086560210727858	-0.5613129997379103	0.0	0.8308517805941774	-0.6728699148134889	0.0	0.7969770253100583	-0.7775138530252912	0.0	0.8208157125541077	-0.8005833411372829	0.0	0.811612575525532	-0.800969743034349	0.0	0.7871683286462187	-0.7905464361444376	0.0	0.811245259726848	-0.5596109442816625	0.0	0.8244031632687836	-0.6710482377438435	0.0	0.8001133755716794	-0.7687948424061969	0.0	0.8333016501420899	-0.7862315411993264	0.0	0.8261100540542025	-0.7816624435155699	0.0	0.7865529162774618	-0.7776074131407712	0.0	0.7909721193343487	-0.42796246065056887	0.0	0.8012163689167326	-0.35694439974724157	0.0	0.8129416617475593	-0.392395871944971	0.0	0.7801606891633682	-0.4323110274403446	0.0	0.7487039298201326	-0.40022870180905296	0.0	0.7408237337132872	-0.35237384952520556	0.0	0.7976339929565622	-0.43211035739121306	0.0	0.8444170734170747	-0.4087579215244291	0.0	0.8475000452244474	-0.3609407716689241	0.0
85	2.85126582278481	0.8070960060845424	-0.5837655634837154	0.0	0.8057454666240335	-0.5816344199585893	0.0	0.8310892054512133	-0.6918332551582881	0.0	0.7934640379141646	-0.7941397692230556	0.0	0.8176706598901868	-0.8142906962646448	0.0	0.8085785019200556	-0.8147420851461207	0.0	0.7837032715841622	-0.8067229465980081	0.0	0.8112037948179699	-0.580130665634813	0.0	0.8242517595131328	-0.69008652774436	0.0	0.7969614869886977	-0.7858486262249939	0.0	0.8307464364459206	-0.8012773741727605	0.0	0.8239678314351464	-0.7972047329234482	0.0	0.7833779758837031	-0.7948040889167614	0.0	0.7922349463460857	-0.4473950721749638	0.0	0.8035892288013665	-0.3773844790806326	0.0	0.8159219614222963	-0.41279895261171184	0.0	0.7795445001696357	-0.4516933974620868	0.0	0.7471392419122257	-0.4306084781852674	0.0	0.7388932119987733	-0.3847451694189763	0.0	0.8002967254476581	-0.45193421681264423	0.0	0.8456328907558058	-0.43093270483521806	0.0	0.8455331915531646	-0.3827611677932053	0.0
86	2.8848101265822783	0.8050663255329118	-0.600830396549871	0.0	0.8027703996197243	-0.5992832069518748	0.0	0.830788352785399	-0.7078103550497765	0.0	0.7907024973661575	-0.8081973212003458	0.0	0.8153543134165665	-0.8265040548530547	0.0	0.8063396119751436	-0.8268323015142083	0.0	0.7809819167860343	-0.8200986426011341	0.0	0.8102717463424748	-0.5980275066354637	0.0	0.8235909663967228	-0.7061963496474413	0.0	0.7938926928018778	-0.8006843587203762	0.0	0.8280307071601515	-0.8146094937879979	0.0	0.8218601445927072	-0.8109132925322265	0.0	0.7806085905411682	-0.8097073955107267	0.0	0.79396232319727	-0.46418958251562087	0.0	0.806221943460981	-0.3953747939989898	0.0	0.8195671845816894	-0.4305249897966021	0.0	0.779537688846546	-0.4689589842200946	0.0	0.746357981352466	-0.4631371376612892	0.0	0.7372588706003532	-0.42278341410183096	0.0	0.803888604141891	-0.4699239994475024	0.0	0.8456008157495758	-0.4555958642388126	0.0	0.8504623276017281	-0.409286087080663	0.0
